<svg width="29" height="24" viewBox="0 0 29 24" fill="none" xmlns="http://www.w3.org/2000/svg">
<path d="M28.138 14.4827C28.138 18.6841 25.8358 19.658 21.8847 21.158C17.4848 22.8284 12.6376 24.5479 8.31272 22.6919C4.80282 21.1857 2.48279 18.4045 2.48279 14.4827C2.48279 8.31236 8.22589 3.3103 15.3104 3.3103C22.3949 3.3103 28.138 8.31236 28.138 14.4827Z" fill="#FFDC00"/>
<path d="M-2.18749e-05 11.1724C-2.18749e-05 15.3738 2.3021 16.3477 6.25321 17.8477C10.6531 19.5181 15.5003 21.2376 19.8252 19.3816C23.3351 17.8754 25.6552 15.0942 25.6552 11.1724C25.6552 5.00206 19.912 0 12.8276 0C5.74308 0 -2.18749e-05 5.00206 -2.18749e-05 11.1724Z" fill="#D2277C"/>
<path d="M25.569 11.28C25.569 7.81725 23.7167 6.87449 20.51 5.67528C16.2145 4.06887 11.4269 2.40289 7.28231 4.3661C4.42472 5.71968 2.56897 8.05716 2.56897 11.28C2.56897 16.6482 7.7177 21 14.069 21C20.4202 21 25.569 16.6482 25.569 11.28Z" fill="#E69731"/>
</svg>
